<?xml version="1.0" standalone="no"?>
<!DOCTYPE svg PUBLIC "-//W3C//DTD SVG 20010904//EN"
 "http://www.w3.org/TR/2001/REC-SVG-20010904/DTD/svg10.dtd">
<svg version="1.0" xmlns="http://www.w3.org/2000/svg"
 width="489.000000pt" height="522.000000pt" viewBox="0 0 489.000000 522.000000"
 preserveAspectRatio="xMidYMid meet">

<g transform="translate(0.000000,522.000000) scale(0.100000,-0.100000)"
fill="#000000" stroke="none">
<path d="M2867 5207 c4 -6 0 -8 -11 -4 -11 5 -15 3 -10 -5 5 -7 2 -9 -8 -5
-10 3 -27 -6 -44 -24 -17 -18 -38 -29 -55 -29 -15 0 -30 -4 -33 -8 -3 -5 15
-6 40 -2 25 4 41 3 37 -1 -5 -5 -36 -10 -70 -11 -33 -2 -58 -7 -55 -12 3 -5
-5 -7 -16 -4 -14 4 -20 2 -15 -5 4 -6 -2 -8 -15 -5 -14 4 -20 2 -15 -5 4 -6
-2 -8 -15 -5 -12 4 -20 2 -17 -2 7 -12 -32 -23 -46 -14 -8 5 -9 3 -4 -6 6 -10
4 -12 -9 -7 -11 5 -15 3 -10 -5 5 -8 2 -9 -10 -5 -11 5 -15 3 -10 -5 5 -8 2
-9 -10 -5 -11 5 -15 3 -10 -5 5 -8 2 -9 -10 -5 -11 5 -15 3 -10 -5 5 -8 2 -9
-9 -5 -9 3 -19 1 -23 -5 -5 -7 -2 -8 6 -3 9 6 11 4 6 -4 -5 -7 -14 -10 -21 -7
-7 2 -28 -12 -46 -32 l-34 -37 40 35 40 35 -35 -38 c-19 -20 -40 -35 -46 -33
-7 3 -18 -3 -26 -12 -12 -15 -11 -16 5 -3 9 7 17 11 17 7 0 -13 -80 -57 -91
-50 -8 5 -9 3 -4 -6 6 -10 4 -12 -9 -7 -11 5 -15 3 -10 -5 5 -8 2 -9 -9 -5 -9
3 -19 1 -23 -5 -5 -7 -2 -8 6 -3 9 6 11 4 6 -4 -5 -7 -14 -10 -22 -7 -7 3 -16
0 -20 -6 -5 -7 -2 -8 6 -3 9 6 11 4 6 -4 -5 -7 -14 -10 -21 -8 -7 3 -38 -20
-69 -52 -52 -52 -72 -82 -44 -65 7 4 8 3 4 -5 -4 -6 -11 -9 -16 -6 -10 6 -54
-74 -46 -83 3 -3 6 1 6 8 0 7 2 11 5 8 9 -8 -6 -38 -16 -32 -5 3 -6 -1 -4 -9
3 -7 1 -24 -5 -38 -10 -22 -10 -22 -6 -1 2 12 1 20 -4 17 -4 -3 -10 -16 -12
-30 -3 -13 -1 -22 3 -19 5 3 9 -2 9 -11 0 -9 -4 -14 -9 -11 -4 3 -6 -6 -3 -21
3 -16 1 -24 -5 -20 -6 4 -8 -4 -5 -20 3 -16 1 -24 -5 -20 -6 4 -8 -3 -6 -17 3
-13 -1 -27 -8 -31 -8 -6 -10 -4 -4 6 5 9 5 11 -2 4 -6 -5 -15 -23 -21 -40 -5
-16 -17 -47 -27 -68 -9 -22 -11 -36 -6 -32 7 3 11 -3 11 -15 0 -12 -4 -19 -8
-16 -4 2 -6 -10 -4 -29 2 -19 -1 -36 -9 -40 -8 -6 -10 -4 -4 5 5 9 4 11 -3 6
-7 -4 -12 -14 -12 -22 0 -10 5 -12 13 -8 8 5 8 3 -2 -9 -7 -9 -16 -15 -20 -12
-4 2 -45 -35 -92 -83 -46 -48 -61 -67 -34 -42 100 90 119 103 40 28 -44 -42
-85 -76 -90 -74 -6 2 -42 -26 -80 -62 -39 -35 -61 -58 -50 -51 18 13 19 13 6
-4 -8 -9 -16 -15 -19 -12 -7 7 -52 -35 -52 -48 0 -5 8 -3 18 4 14 11 13 10 -2
-9 -21 -24 -32 -29 -20 -9 5 8 2 8 -9 -2 -9 -7 -17 -18 -17 -24 0 -19 32 -46
48 -40 8 4 13 2 10 -3 -7 -12 78 -19 212 -19 58 0 94 -1 80 -3 -35 -5 -48 -20
-14 -16 20 2 24 0 15 -9 -7 -7 -17 -12 -23 -12 -6 0 -13 -6 -16 -14 -3 -9 0
-11 8 -6 9 5 11 4 6 -4 -4 -6 -11 -9 -16 -6 -5 3 -14 -5 -21 -17 -11 -20 -10
-21 3 -11 12 11 14 6 8 -37 -4 -30 -3 -47 3 -43 6 3 8 -7 5 -25 -2 -17 -1 -29
3 -27 8 5 22 -56 14 -63 -3 -3 -5 2 -5 11 0 9 -4 18 -9 21 -5 4 -7 -3 -4 -14
5 -19 0 -20 -103 -22 l-109 -2 120 -6 120 -6 -111 -2 c-114 -2 -177 5 -169 18
2 4 -7 5 -22 2 -14 -3 -23 -1 -20 4 7 13 -131 8 -147 -5 -7 -6 -11 -23 -8 -40
2 -16 -1 -37 -8 -48 -11 -17 -11 -17 -6 0 3 11 2 15 -4 12 -6 -3 -10 -12 -10
-20 0 -7 -8 -16 -17 -19 -10 -3 -6 -4 9 -2 16 2 28 -1 28 -5 0 -5 -11 -9 -25
-9 -14 0 -25 -5 -25 -11 0 -5 -4 -7 -10 -4 -6 4 -7 -1 -3 -11 3 -10 2 -15 -3
-12 -5 4 -9 -17 -9 -47 0 -30 4 -51 9 -47 5 3 7 -2 3 -10 -7 -20 11 -38 31
-31 10 4 13 2 8 -5 -4 -7 -2 -10 7 -6 7 2 23 -3 33 -13 11 -10 15 -15 9 -11
-6 4 -10 -6 -10 -27 0 -28 2 -31 15 -22 25 18 -2 -7 -50 -49 l-45 -38 35 39
c34 39 33 39 -13 -5 -42 -39 -64 -71 -37 -55 16 10 11 -1 -7 -16 -15 -12 -16
-12 -8 1 5 9 0 8 -13 -4 -26 -23 -30 -44 -4 -25 15 11 15 11 4 -1 -7 -8 -18
-15 -24 -15 -6 0 -13 -6 -16 -14 -3 -8 0 -11 7 -7 17 11 13 0 -6 -15 -15 -12
-16 -12 -8 1 8 13 7 13 -8 1 -20 -16 -23 -36 -4 -25 7 4 9 3 4 -2 -5 -5 -14
-9 -20 -9 -5 0 -12 -6 -15 -14 -3 -9 0 -11 9 -6 8 5 11 4 6 -1 -5 -5 -14 -9
-20 -9 -5 0 -12 -6 -15 -14 -3 -9 0 -11 9 -6 8 5 11 4 6 -1 -5 -5 -14 -9 -20
-9 -5 0 -12 -6 -15 -14 -3 -9 0 -11 9 -6 8 5 11 4 6 -1 -5 -5 -14 -9 -20 -9
-5 0 -12 -6 -15 -14 -3 -9 0 -11 8 -6 9 5 11 4 6 -4 -4 -6 -11 -9 -16 -6 -5 3
-14 -3 -19 -14 -14 -26 -14 -34 1 -25 7 4 8 3 4 -5 -4 -6 -11 -9 -16 -6 -12 7
-33 -32 -25 -45 4 -6 1 -9 -6 -8 -6 2 -14 -3 -17 -11 -3 -9 0 -11 8 -6 9 5 11
4 6 -4 -4 -6 -11 -9 -16 -6 -12 8 -43 -53 -34 -67 4 -7 3 -8 -4 -4 -6 3 -16
-2 -21 -13 -14 -26 -14 -34 1 -25 7 4 8 3 4 -5 -4 -6 -11 -9 -16 -6 -12 8 -53
-73 -44 -87 4 -7 3 -8 -4 -4 -14 8 -46 -50 -36 -66 4 -7 3 -8 -4 -4 -7 4 -19
-9 -32 -33 -24 -48 -26 -62 -5 -35 14 17 14 15 0 -13 -8 -18 -18 -33 -21 -33
-3 0 -2 6 1 13 4 6 -3 1 -15 -12 -12 -14 -19 -33 -17 -43 3 -10 1 -16 -4 -13
-11 8 -62 -93 -55 -111 3 -8 1 -13 -5 -11 -5 1 -38 -61 -73 -138 -63 -138 -89
-206 -67 -175 17 23 12 -2 -5 -30 -11 -18 -14 -19 -9 -5 14 44 -13 -4 -39 -68
-28 -71 -32 -91 -15 -67 8 11 9 9 3 -10 -3 -14 -11 -32 -16 -40 -8 -12 -8 -11
-4 3 10 32 -12 8 -23 -25 -10 -31 -10 -32 5 -13 16 19 16 19 9 -5 -4 -14 -12
-32 -17 -40 -7 -11 -8 -10 -3 5 4 13 3 16 -3 10 -13 -14 -43 -107 -37 -113 3
-3 5 1 5 8 0 7 2 11 5 8 3 -2 -2 -22 -10 -44 -9 -21 -13 -28 -11 -15 7 36 -11
11 -22 -32 -6 -21 -7 -35 -1 -32 5 4 9 13 9 22 0 9 2 14 5 11 9 -8 -6 -59 -15
-53 -4 2 -5 -7 -2 -22 3 -16 1 -24 -5 -20 -6 4 -8 -4 -5 -20 3 -18 1 -24 -6
-19 -7 4 -10 2 -7 -6 3 -7 0 -26 -5 -43 -10 -29 -10 -29 -6 -3 2 15 0 25 -4
23 -4 -3 -10 -18 -12 -34 -2 -17 -1 -28 4 -25 4 3 8 -4 8 -16 0 -12 -4 -19 -9
-16 -4 3 -6 -6 -3 -21 3 -16 1 -24 -5 -20 -6 4 -8 -4 -5 -20 3 -16 1 -24 -5
-20 -6 4 -9 -3 -6 -16 2 -12 -3 -44 -12 -72 -8 -27 -13 -38 -11 -23 4 37 -11
26 -16 -11 -2 -17 -1 -28 4 -25 4 3 8 -4 8 -16 0 -12 -4 -19 -8 -16 -5 3 -6
-9 -4 -26 3 -18 1 -28 -5 -25 -5 4 -8 -7 -5 -25 3 -18 1 -28 -5 -25 -5 4 -8
-7 -5 -25 3 -17 1 -28 -5 -25 -5 3 -7 -10 -5 -30 3 -21 1 -33 -5 -30 -5 3 -7
-7 -5 -25 3 -17 1 -28 -5 -25 -5 3 -7 -10 -5 -30 3 -23 1 -33 -6 -29 -6 3 -8
-1 -6 -11 2 -10 0 -38 -5 -63 -10 -42 -10 -43 -8 -8 2 26 0 35 -7 28 -6 -6
-10 -51 -10 -100 0 -49 -3 -87 -8 -84 -4 3 -5 -2 -2 -10 6 -14 199 -16 1915
-16 1337 0 1909 3 1909 11 0 5 -6 7 -12 3 -8 -4 -10 -3 -5 2 5 5 12 9 15 9 13
0 32 16 32 27 0 6 -7 5 -17 -3 -16 -11 -16 -11 -5 1 7 8 18 15 24 15 6 0 13 6
16 14 3 9 0 11 -9 6 -8 -5 -11 -4 -6 1 5 5 14 9 20 9 5 0 12 6 15 14 3 9 0 11
-9 6 -8 -5 -11 -4 -6 1 5 5 14 9 20 9 5 0 12 6 15 14 3 9 0 11 -9 6 -8 -5 -11
-4 -6 1 5 5 14 9 20 9 5 0 12 6 15 14 3 9 0 11 -8 6 -9 -5 -11 -4 -6 4 4 6 11
9 16 6 4 -3 18 10 29 29 24 38 26 50 9 40 -8 -4 -10 -3 -5 2 5 5 14 9 20 9 5
0 12 6 15 14 3 9 0 11 -8 6 -9 -5 -11 -4 -6 4 4 6 11 9 16 6 5 -3 14 3 19 14
14 26 14 34 -1 25 -7 -4 -8 -3 -4 5 4 6 11 9 16 6 5 -3 14 3 19 14 14 26 14
34 -1 25 -8 -4 -10 -3 -5 2 5 5 14 9 20 9 5 0 12 6 15 14 3 9 0 11 -9 6 -8 -5
-11 -4 -6 1 5 5 12 9 15 10 4 0 18 6 32 13 l25 11 -28 -4 c-16 -2 -25 0 -20 5
5 5 21 10 36 11 14 1 29 8 32 16 2 7 1 11 -4 8 -5 -3 -11 5 -13 19 -4 20 -2
23 8 15 10 -9 11 -6 7 9 -3 12 -9 18 -14 15 -16 -9 -10 3 8 17 14 12 16 12 8
0 -5 -10 -4 -12 4 -7 18 11 43 65 35 78 -4 7 -3 8 4 4 12 -7 37 36 71 121 11
26 27 66 35 88 15 37 15 39 0 20 -16 -20 -16 -19 -9 5 4 14 12 30 18 35 7 7 7
6 2 -4 -5 -9 -4 -12 2 -8 6 4 13 16 16 27 4 17 3 19 -8 10 -11 -9 -12 -7 -8 9
3 12 9 19 13 16 5 -3 6 3 4 13 -3 9 0 28 6 42 9 23 10 23 6 2 -2 -12 -1 -20 4
-17 4 3 10 16 12 30 3 13 1 22 -3 19 -5 -3 -9 4 -9 16 0 12 4 19 9 16 4 -3 6
6 3 21 -3 15 -1 24 5 20 5 -3 8 5 6 21 -2 15 1 47 6 72 9 41 10 42 8 8 -2 -20
1 -34 5 -32 4 3 8 20 8 37 0 35 -26 81 -40 72 -5 -3 -12 0 -16 6 -5 8 -3 9 6
4 10 -6 12 -4 7 9 -4 10 -3 15 3 11 6 -3 10 1 10 10 0 10 -5 13 -12 9 -8 -4
-10 -3 -5 2 5 5 14 9 19 9 6 0 13 6 16 14 3 9 0 11 -8 6 -9 -5 -11 -4 -6 4 4
6 11 9 16 6 11 -7 30 27 30 55 0 26 -64 112 -76 102 -5 -4 -2 1 5 10 7 10 16
16 20 15 3 -1 40 34 81 78 l74 80 -80 -75 -79 -75 75 78 c49 51 81 76 92 74
26 -7 60 37 62 80 1 27 -3 37 -12 35 -8 -1 -11 2 -7 9 9 14 -93 119 -110 113
-6 -3 -18 3 -26 13 -13 17 -13 17 6 3 18 -14 19 -14 7 2 -8 10 -20 14 -29 11
-11 -4 -14 -2 -9 5 5 8 1 10 -10 5 -12 -4 -15 -3 -10 5 5 8 1 10 -10 5 -12 -4
-15 -3 -10 5 5 8 1 10 -10 5 -12 -4 -15 -3 -10 5 5 8 1 10 -10 5 -13 -5 -15
-3 -9 7 5 9 4 11 -4 6 -12 -8 -79 10 -96 26 -5 5 4 4 20 -2 30 -10 30 -10 8 7
-15 13 -21 28 -20 55 0 20 -5 43 -12 52 -17 20 -5 116 14 116 8 0 16 4 20 9 3
6 -7 6 -27 1 -23 -7 -29 -7 -20 2 6 6 24 11 40 12 17 1 27 5 24 10 -3 5 2 6
12 3 11 -5 15 -3 10 5 -5 8 -2 9 10 5 11 -5 15 -3 10 5 -5 8 -2 9 9 5 9 -3 19
-1 23 5 5 7 2 8 -6 3 -9 -6 -11 -4 -6 4 5 7 14 10 21 7 7 -2 21 5 32 17 l18
22 -25 -20 c-21 -16 -20 -14 4 13 30 32 50 45 26 17 -22 -27 5 -16 33 13 30
32 36 52 10 31 -10 -7 -5 1 11 19 34 36 49 44 20 10 -10 -13 -4 -10 14 6 33
31 45 58 15 35 -16 -11 -16 -11 -5 1 7 8 18 15 24 15 6 0 13 6 16 14 3 9 0 11
-9 6 -8 -5 -11 -4 -6 1 5 5 14 9 20 9 5 0 12 6 15 14 3 9 0 11 -8 6 -9 -5 -11
-4 -6 4 4 6 12 9 17 6 15 -10 79 135 72 163 -4 17 -2 23 5 18 7 -4 10 -2 7 6
-3 7 0 27 5 43 10 29 10 29 6 3 -2 -15 0 -25 5 -23 4 3 7 97 7 210 -1 112 -5
202 -10 199 -4 -3 -8 -1 -8 5 0 5 -3 18 -6 28 -5 15 -4 15 5 3 13 -19 14 -9 1
25 -5 14 -14 23 -20 20 -5 -3 -7 0 -5 7 7 19 -62 98 -79 92 -8 -3 -17 0 -22 7
-5 8 -3 10 6 4 8 -5 11 -4 6 3 -4 6 -14 8 -23 5 -11 -4 -14 -3 -9 5 5 8 1 10
-10 5 -13 -5 -15 -3 -9 7 5 7 4 11 -1 8 -5 -3 -46 -3 -91 1 -47 4 -79 2 -76
-3 3 -5 -6 -7 -20 -4 -16 3 -24 1 -20 -5 4 -6 -2 -8 -15 -5 -14 4 -20 2 -15
-5 4 -7 0 -8 -11 -4 -11 5 -15 3 -10 -5 5 -8 2 -9 -10 -5 -11 5 -15 3 -10 -5
5 -8 2 -9 -9 -5 -9 3 -19 1 -23 -5 -5 -7 -2 -8 6 -3 9 6 11 4 6 -4 -5 -7 -14
-10 -22 -7 -7 3 -16 0 -20 -6 -5 -7 -2 -8 6 -3 9 6 11 4 6 -4 -5 -7 -14 -10
-21 -8 -12 5 -135 -110 -135 -126 0 -5 5 -5 10 -2 16 10 11 -1 -7 -16 -14 -12
-16 -12 -9 1 4 8 -2 4 -14 -9 -11 -13 -19 -30 -16 -38 3 -7 0 -12 -6 -10 -6 1
-13 -4 -16 -12 -3 -9 0 -11 8 -6 9 5 11 4 6 -4 -4 -6 -12 -9 -17 -5 -8 5 -55
-86 -80 -156 -9 -24 -9 -24 7 -5 15 18 16 18 10 2 -3 -10 -6 -23 -6 -28 0 -6
-4 -8 -9 -5 -4 3 -6 -6 -3 -21 3 -16 1 -24 -5 -20 -6 4 -8 -4 -5 -20 3 -15 1
-24 -5 -20 -5 4 -8 -7 -5 -25 3 -17 1 -28 -4 -25 -5 3 -7 -51 -3 -126 3 -73 4
-134 2 -136 -2 -2 -3 5 -3 17 0 11 -4 23 -9 26 -12 8 4 -61 29 -118 11 -26 24
-45 29 -41 5 3 13 0 17 -6 5 -8 3 -9 -6 -4 -8 5 -11 3 -8 -6 3 -8 10 -13 16
-12 5 1 16 -5 24 -15 12 -15 11 -16 -4 -3 -29 22 -21 -3 9 -30 17 -15 22 -17
13 -5 -15 19 -14 19 13 2 25 -17 40 -35 15 -20 -7 4 -8 3 -4 -4 4 -6 14 -8 23
-5 11 4 14 3 9 -5 -5 -8 -1 -10 10 -5 13 5 15 3 9 -7 -5 -8 -4 -11 2 -7 6 4
30 2 54 -3 41 -9 42 -9 7 -7 -20 2 -34 -1 -32 -5 3 -4 12 -8 20 -8 11 0 13 -7
8 -26 -6 -21 -4 -25 7 -19 8 5 11 4 6 -1 -5 -5 -12 -9 -16 -9 -5 0 -21 -16
-36 -35 l-29 -35 30 25 c17 14 12 8 -10 -13 -25 -24 -47 -37 -58 -34 -11 3
-15 1 -11 -6 4 -6 -2 -8 -15 -5 -14 4 -20 2 -15 -5 4 -6 0 -8 -9 -4 -9 3 -21
0 -27 -6 -17 -17 -13 -73 6 -88 11 -10 14 -10 9 -2 -11 19 -1 16 15 -4 10 -11
10 -14 2 -9 -9 5 -13 -1 -13 -19 0 -18 4 -24 13 -19 6 4 -8 -14 -33 -40 -24
-25 -46 -46 -49 -46 -3 0 13 19 34 42 33 36 31 35 -13 -7 -48 -46 -69 -76 -39
-59 8 5 8 2 -2 -9 -16 -20 -26 -23 -15 -4 5 8 2 8 -9 -2 -20 -16 -23 -36 -4
-25 7 4 9 3 4 -2 -5 -5 -14 -9 -19 -9 -6 0 -13 -6 -16 -14 -3 -9 0 -11 9 -6 8
5 11 4 6 -1 -5 -5 -14 -9 -19 -9 -6 0 -13 -6 -16 -14 -3 -9 0 -11 9 -6 8 5 11
4 6 -1 -5 -5 -14 -9 -19 -9 -6 0 -13 -6 -16 -14 -3 -9 0 -11 9 -6 8 5 11 4 6
-1 -5 -5 -12 -9 -15 -9 -13 0 -32 -16 -32 -26 0 -6 5 -7 12 -3 7 4 8 3 4 -4
-4 -6 -14 -8 -23 -5 -12 5 -14 3 -8 -8 5 -8 -1 -5 -13 5 -23 20 -29 32 -11 20
23 -14 2 20 -22 35 -23 15 -24 15 -9 -4 14 -18 13 -19 -1 -8 -8 7 -31 20 -50
28 -19 9 -24 14 -11 11 12 -2 20 -1 17 4 -3 4 2 27 10 50 13 37 13 41 0 30
-13 -11 -13 -8 -4 19 6 17 13 31 16 31 3 0 2 -8 -2 -17 -4 -12 -3 -14 3 -8 5
6 13 21 17 35 5 20 4 22 -5 10 -10 -13 -11 -12 -6 3 3 10 6 23 6 28 0 6 4 8 9
5 4 -3 6 5 4 18 -3 13 -15 29 -26 35 -12 6 -15 10 -7 8 10 -3 15 4 17 21 0 14
9 32 19 39 16 12 16 13 -7 14 -20 1 -21 2 -4 6 11 3 26 10 34 17 12 9 13 8 7
-4 -6 -10 -3 -10 10 3 18 17 18 17 0 35 -10 9 -16 11 -12 5 11 -19 -9 -16 -25
4 -8 10 -9 14 -2 10 6 -4 14 -3 17 2 4 5 -2 12 -11 14 -16 4 -16 5 -1 6 9 0
21 13 27 29 8 20 10 21 7 4 -2 -12 -1 -20 4 -17 4 3 10 16 12 30 3 13 1 22 -3
19 -11 -6 -10 13 2 46 l9 25 -4 -27 c-4 -37 11 -26 16 11 2 17 1 28 -4 25 -4
-3 -8 7 -8 21 0 14 3 24 8 22 4 -3 4 47 1 111 -3 65 -4 119 -2 121 2 2 3 -3 3
-12 0 -9 4 -18 9 -22 13 -8 -1 41 -28 92 -11 23 -26 45 -32 49 -8 5 -9 3 -4
-7 5 -8 -1 -5 -13 5 -25 21 -31 36 -7 16 24 -20 17 4 -8 28 -26 24 -42 29 -31
10 4 -7 -2 -4 -14 6 -26 23 -30 34 -4 15 15 -13 16 -12 4 3 -8 9 -19 15 -27
12 -7 -3 -16 0 -21 7 -5 8 -3 10 6 4 8 -5 11 -4 6 3 -4 6 -12 9 -19 6 -7 -2
-21 3 -32 12 -11 8 -14 12 -6 8 9 -4 12 -3 8 4 -4 5 -15 8 -25 6 -9 -3 -25 1
-35 8 -17 13 -16 15 15 43 l33 30 -30 -35 -30 -35 40 37 c35 33 39 43 40 85 0
43 2 48 22 47 13 -1 20 3 17 7 -3 5 -12 9 -21 9 -9 0 -14 3 -10 6 8 8 78 -16
72 -25 -2 -5 7 -6 22 -3 14 3 23 1 20 -4 -3 -5 8 -9 23 -9 15 0 26 4 22 9 -3
5 4 7 16 4 16 -5 29 3 52 28 31 36 40 55 16 35 -11 -9 -12 -6 -8 14 2 14 7 23
11 21 3 -2 6 20 6 49 0 29 -4 51 -9 48 -5 -3 -7 10 -4 30 2 21 0 33 -6 30 -5
-3 -7 5 -4 20 3 15 1 24 -3 21 -5 -3 -9 4 -9 16 0 12 4 19 9 16 4 -3 6 6 3 19
-2 14 -8 27 -12 30 -5 3 -6 -5 -4 -17 4 -21 3 -21 -6 2 -6 14 -9 33 -6 42 2
11 0 15 -6 12 -7 -5 -9 4 -6 24 2 17 1 29 -4 26 -8 -5 -1 126 8 155 4 12 2 12
-13 0 -17 -13 -17 -12 -4 4 9 11 25 17 41 15 45 -4 60 17 60 84 0 37 4 57 10
53 6 -3 10 -4 10 0 0 3 -10 10 -22 16 -22 9 -22 9 2 4 14 -2 35 -5 48 -5 15 0
21 -4 16 -12 -4 -7 -3 -8 5 -4 14 9 143 -3 137 -13 -2 -3 16 -4 41 -2 25 2 43
-1 40 -5 -3 -5 32 -8 76 -7 69 1 84 4 95 21 12 18 -3 34 -178 198 -180 168
-225 206 -204 173 7 -12 5 -12 -9 0 -18 15 -23 26 -7 16 6 -4 10 17 10 55 0
62 -31 147 -50 135 -5 -3 -12 0 -16 6 -4 8 -3 9 4 5 17 -10 15 -5 -18 66 -16
34 -30 68 -30 75 0 6 -5 15 -12 19 -7 5 -8 3 -3 -6 6 -9 4 -11 -4 -5 -7 4 -11
16 -8 26 3 12 1 17 -5 13 -7 -5 -9 2 -6 19 3 16 1 24 -5 20 -6 -4 -8 4 -5 20
3 16 1 24 -5 20 -6 -3 -8 8 -5 30 2 20 1 34 -3 31 -4 -2 -9 5 -12 17 -5 17 -3
18 10 7 35 -29 -6 29 -47 65 -42 39 -62 49 -39 20 9 -11 3 -10 -18 6 -18 12
-33 25 -33 28 0 3 8 -1 18 -8 15 -13 16 -12 4 3 -8 9 -19 15 -27 12 -7 -3 -16
0 -21 7 -5 8 -3 10 6 4 8 -5 11 -4 6 3 -4 6 -12 9 -19 6 -7 -2 -21 3 -32 12
-11 8 -14 12 -6 8 9 -4 12 -3 7 4 -4 6 -14 8 -23 5 -11 -4 -14 -3 -9 5 4 7 2
10 -6 7 -8 -3 -22 2 -33 11 -11 8 -14 12 -6 8 9 -4 12 -3 7 4 -4 6 -14 8 -23
5 -11 -4 -14 -3 -9 5 5 8 1 10 -10 5 -12 -4 -15 -3 -10 5 5 8 1 10 -10 5 -12
-4 -15 -3 -10 5 5 8 1 10 -10 5 -12 -4 -15 -3 -10 5 5 8 1 10 -10 5 -12 -4
-15 -3 -10 5 5 8 1 10 -10 5 -13 -5 -15 -3 -9 7 5 9 4 11 -4 6 -15 -9 -53 3
-46 15 3 5 -2 6 -11 2 -11 -4 -15 -3 -11 4 5 7 -1 9 -15 5 -14 -3 -19 -1 -14
6 5 8 1 10 -10 5 -12 -4 -15 -3 -10 5 4 7 2 10 -7 7 -7 -3 -24 -1 -38 5 -24
11 -24 11 -1 6 23 -5 24 -4 6 17 -57 69 -98 105 -112 99 -8 -3 -13 -1 -9 4 7
12 -14 15 -120 19 -55 1 -80 -1 -76 -8z m-37 -20 c0 -2 -10 -12 -22 -23 l-23
-19 19 23 c18 21 26 27 26 19z m290 -32 c19 -19 32 -35 29 -35 -3 0 -20 16
-39 35 -19 19 -32 35 -29 35 3 0 20 -16 39 -35z m590 -370 c13 -14 21 -25 18
-25 -2 0 -15 11 -28 25 -13 14 -21 25 -18 25 2 0 15 -11 28 -25z m-1590 12 c0
-1 -24 -25 -52 -52 l-53 -50 50 53 c46 48 55 57 55 49z m-130 -157 c-6 -11
-13 -20 -16 -20 -2 0 0 9 6 20 6 11 13 20 16 20 2 0 0 -9 -6 -20z m-107 -330
c-3 -12 -8 -19 -11 -16 -5 6 5 36 12 36 2 0 2 -9 -1 -20z m2024 -82 c-2 -18
-4 -6 -4 27 0 33 2 48 4 33 2 -15 2 -42 0 -60z m93 -123 c30 -30 52 -55 49
-55 -2 0 -29 25 -59 55 -30 30 -52 55 -49 55 2 0 29 -25 59 -55z m145 -135
c44 -44 77 -80 75 -80 -3 0 -41 36 -85 80 -44 44 -77 80 -75 80 3 0 41 -36 85
-80z m-2535 -73 c0 -1 -24 -25 -52 -52 l-53 -50 50 53 c46 48 55 57 55 49z
m2660 -42 c19 -19 32 -35 29 -35 -3 0 -20 16 -39 35 -19 19 -32 35 -29 35 3 0
20 -16 39 -35z m-433 -127 c-2 -18 -4 -6 -4 27 0 33 2 48 4 33 2 -15 2 -42 0
-60z m-90 -165 c-2 -16 -4 -5 -4 22 0 28 2 40 4 28 2 -13 2 -35 0 -50z m898
-173 c10 -11 16 -20 13 -20 -3 0 -13 9 -23 20 -10 11 -16 20 -13 20 3 0 13 -9
23 -20z m-139 -21 c23 -11 48 -27 56 -36 7 -9 -7 -3 -31 13 -37 24 -55 29
-105 29 -76 -1 -135 -28 -214 -98 -41 -37 -47 -41 -22 -13 102 111 222 151
316 105z m-306 -2 c0 -1 -24 -25 -52 -52 l-53 -50 50 53 c46 48 55 57 55 49z
m323 -37 c26 -16 47 -27 47 -24 0 3 5 2 10 -1 6 -4 8 -10 5 -15 -3 -5 -28 7
-56 26 -38 25 -62 34 -94 34 -50 0 -114 -21 -156 -50 -16 -12 -29 -19 -29 -16
0 9 63 50 99 62 63 23 122 17 174 -16z m158 13 c13 -16 12 -17 -3 -4 -10 7
-18 15 -18 17 0 8 8 3 21 -13z m-3401 -7 c0 -2 -8 -10 -17 -17 -16 -13 -17
-12 -4 4 13 16 21 21 21 13z m3206 -45 c-4 -5 2 -7 11 -5 10 3 27 -2 38 -11
11 -9 14 -13 6 -9 -9 4 -12 3 -7 -4 4 -6 13 -9 22 -5 9 3 14 0 12 -8 -2 -7 4
-13 12 -14 8 0 14 -6 13 -12 -1 -6 5 -10 15 -9 9 0 18 -7 20 -18 2 -10 0 -16
-5 -13 -9 6 -5 -94 5 -105 4 -4 6 16 5 45 l-1 52 7 -50 c9 -54 2 -177 -8 -170
-4 2 -5 -12 -3 -32 3 -23 1 -33 -6 -29 -6 3 -8 -1 -6 -12 3 -9 0 -28 -6 -42
-9 -23 -10 -23 -6 -2 2 12 1 20 -4 17 -4 -3 -10 -16 -12 -30 -3 -13 -1 -22 3
-19 13 7 11 -18 -2 -36 -9 -13 -10 -12 -5 3 13 40 -6 12 -39 -59 -39 -86 -40
-88 -22 -78 7 4 9 3 4 -2 -5 -5 -14 -9 -20 -9 -5 0 -12 -6 -15 -14 -3 -9 0
-11 9 -6 8 5 11 4 6 -1 -5 -5 -14 -9 -20 -9 -5 0 -12 -6 -15 -14 -3 -9 0 -11
9 -6 8 5 6 -1 -5 -13 -10 -12 -22 -20 -26 -17 -3 2 -29 -19 -56 -48 -27 -28
-35 -40 -19 -27 l30 25 -23 -26 c-31 -36 -119 -82 -143 -76 -10 3 -17 1 -13
-4 3 -5 -9 -9 -26 -9 -17 0 -29 4 -26 9 4 5 -3 7 -14 4 -18 -5 -110 40 -110
54 0 3 12 -3 28 -12 l27 -18 -24 26 c-13 15 -27 24 -32 22 -4 -3 -11 0 -15 6
-5 8 -3 9 6 4 10 -6 12 -4 6 11 -5 10 -13 33 -18 49 -6 17 -15 35 -21 40 -7 7
-7 5 -2 -4 6 -10 4 -12 -4 -6 -8 4 -11 20 -9 36 3 15 1 26 -4 23 -23 -14 -2
284 22 309 4 5 2 -16 -5 -46 -10 -44 -10 -55 -1 -51 7 3 17 24 23 47 11 45 9
17 -2 -45 -5 -26 -4 -38 4 -38 6 0 11 7 11 16 0 8 4 13 8 10 4 -2 6 11 4 31
-3 23 -1 33 6 29 6 -4 8 2 4 16 -3 13 -1 19 5 15 7 -5 9 1 6 15 -3 16 -2 19 5
10 11 -16 47 71 36 89 -4 8 -3 9 4 5 6 -3 16 2 21 13 14 26 14 34 -1 25 -8 -4
-10 -3 -5 2 5 5 14 9 20 9 5 0 12 6 15 14 3 9 0 11 -9 5 -12 -7 -12 -5 0 9 16
20 25 23 15 5 -4 -7 2 -4 14 6 26 23 30 44 5 26 -10 -7 9 13 41 45 72 69 142
105 209 105 27 0 46 -4 43 -9z m-246 -14 c0 -2 -15 -16 -32 -33 l-33 -29 29
33 c28 30 36 37 36 29z m355 -7 c-3 -5 -2 -10 3 -10 6 0 13 -8 16 -17 6 -15 5
-15 -13 1 -18 16 -20 36 -5 36 3 0 2 -4 -1 -10z m-435 -54 c0 -2 -8 -10 -17
-17 -16 -13 -17 -12 -4 4 13 16 21 21 21 13z m20 -10 c0 -2 -8 -10 -17 -17
-16 -13 -17 -12 -4 4 13 16 21 21 21 13z m-380 -139 c0 -2 -10 -12 -22 -23
l-23 -19 19 23 c18 21 26 27 26 19z m278 -38 c-6 -16 -12 -28 -14 -26 -5 5 13
57 20 57 3 0 0 -14 -6 -31z m-115 -4 c-3 -9 -8 -14 -10 -11 -3 3 -2 9 2 15 9
16 15 13 8 -4z m68 -38 c-10 -9 -11 -8 -5 6 3 10 9 15 12 12 3 -3 0 -11 -7
-18z m60 -10 c-10 -9 -11 -8 -5 6 3 10 9 15 12 12 3 -3 0 -11 -7 -18z m-40
-18 c-5 -13 -10 -19 -10 -12 -1 15 10 45 15 40 3 -2 0 -15 -5 -28z m-500 -12
c-10 -9 -11 -8 -5 6 3 10 9 15 12 12 3 -3 0 -11 -7 -18z m5 -189 c5 -8 1 -8
-12 2 -19 14 -19 14 0 -8 19 -22 43 -31 31 -12 -11 18 1 10 26 -17 13 -14 18
-23 10 -18 -9 5 -12 3 -9 -6 3 -8 10 -14 15 -14 6 0 15 -4 20 -9 5 -5 3 -6 -4
-2 -7 4 -13 5 -13 3 0 -11 31 -77 36 -77 3 0 2 6 -2 13 -5 8 -4 9 3 2 13 -12
28 -109 16 -102 -4 3 -6 -15 -4 -40 2 -29 0 -43 -7 -39 -6 3 -8 -1 -6 -12 3
-9 0 -28 -6 -42 -10 -24 -10 -24 -6 -2 8 40 -6 16 -32 -56 -37 -103 -38 -110
-11 -115 21 -4 20 -5 -6 -7 l-30 -2 30 -8 30 -8 -27 -1 c-22 -1 -28 -6 -29
-23 -1 -22 -1 -22 -9 2 l-8 25 -1 -27 c-1 -21 4 -28 18 -28 11 0 23 -4 26 -10
3 -5 0 -7 -8 -4 -11 4 -13 -1 -9 -21 4 -21 0 -27 -19 -32 -22 -6 -22 -7 -3
-14 16 -6 16 -8 2 -8 -12 -1 -18 -13 -23 -48 -3 -27 -10 -66 -15 -88 -5 -22
-8 -27 -6 -12 5 38 -6 25 -20 -26 -6 -23 -15 -51 -19 -61 -6 -15 -5 -17 5 -11
9 5 11 4 6 -4 -4 -6 -11 -9 -16 -6 -12 7 -33 -32 -25 -45 4 -6 1 -9 -5 -8 -7
2 -16 -8 -21 -22 -8 -22 -7 -23 4 -8 12 15 13 9 9 -40 -2 -31 -9 -65 -14 -76
-7 -13 -7 -16 1 -12 7 5 11 -7 11 -34 0 -23 -4 -39 -9 -36 -4 3 -6 -6 -3 -19
2 -14 8 -27 12 -30 5 -3 6 5 4 17 -4 21 -4 21 6 -1 6 -14 8 -31 5 -38 -2 -8
-1 -12 4 -9 4 3 13 -7 20 -22 11 -25 10 -26 -4 -8 -8 11 -15 16 -15 12 0 -18
31 -63 62 -91 30 -28 31 -28 9 -2 -32 35 -23 35 12 -1 l27 -28 -83 -82 c-77
-77 -85 -82 -98 -66 -11 15 -11 16 0 10 9 -6 12 -4 9 5 -3 8 -10 14 -16 14 -5
0 -14 4 -19 9 -5 5 -2 6 6 1 9 -5 12 -3 9 6 -3 8 -10 14 -16 14 -5 0 -14 4
-19 9 -5 5 -2 6 6 1 9 -5 12 -3 9 6 -3 8 -10 14 -16 14 -5 0 -14 4 -19 9 -5 5
-3 6 5 2 18 -11 15 9 -5 25 -11 10 -14 10 -9 2 11 -19 1 -16 -15 4 -12 14 -12
16 0 9 9 -6 12 -4 9 5 -3 8 -10 14 -16 14 -5 0 -14 4 -19 9 -5 5 -3 6 5 2 18
-11 15 9 -5 25 -11 10 -14 10 -9 2 11 -19 1 -16 -15 4 -12 14 -12 16 0 9 9 -6
12 -4 9 5 -3 8 -10 14 -16 14 -6 0 -17 7 -24 15 -11 12 -11 12 5 1 10 -8 17
-9 17 -3 0 11 -19 27 -32 27 -3 0 -10 4 -15 9 -5 5 -3 6 5 2 18 -11 15 9 -5
25 -11 10 -14 10 -9 2 11 -19 1 -16 -15 4 -10 11 -10 14 -1 9 18 -11 15 9 -5
25 -11 10 -14 10 -9 2 11 -19 1 -16 -15 4 -12 14 -12 16 0 9 9 -6 12 -4 9 5
-3 8 -10 14 -16 14 -6 0 -17 7 -24 15 -11 12 -11 12 5 1 9 -7 17 -9 17 -3 0
12 -25 34 -32 27 -3 -3 -11 3 -19 12 -13 16 -12 17 4 4 25 -20 21 2 -5 25 -13
12 -18 13 -13 4 8 -13 7 -13 -8 -1 -18 15 -23 26 -7 16 17 -10 11 12 -7 26
-15 12 -16 12 -8 -1 8 -13 7 -13 -8 -1 -18 15 -23 26 -7 16 17 -10 11 12 -7
26 -15 12 -16 12 -8 -1 8 -13 7 -13 -8 -1 -18 15 -23 26 -7 16 17 -10 11 12
-7 26 -15 12 -16 12 -8 -1 8 -13 7 -13 -8 -1 -18 15 -23 26 -7 16 19 -12 10
12 -12 31 -19 15 -20 16 -9 2 19 -25 8 -22 -15 4 -10 12 -13 18 -6 14 18 -11
15 9 -5 25 -15 12 -16 12 -8 -1 8 -13 7 -13 -8 -1 -18 15 -23 26 -7 16 19 -12
10 12 -12 31 -19 15 -20 16 -9 2 19 -25 8 -22 -15 4 -10 12 -13 18 -6 14 18
-11 15 9 -5 25 -11 10 -14 10 -9 2 12 -20 1 -15 -20 9 -15 19 -16 20 -1 9 21
-17 22 -8 1 23 -10 16 -14 41 -12 73 3 47 4 48 35 48 17 0 29 4 26 8 -3 5 -20
7 -38 5 -19 -2 -31 0 -29 4 6 9 40 10 71 2 13 -4 20 -11 16 -17 -3 -5 -2 -7 4
-4 5 3 26 7 46 9 20 1 39 8 42 16 3 8 0 10 -7 6 -7 -5 -9 1 -6 19 3 15 2 25
-1 22 -4 -2 -14 11 -24 28 l-17 32 20 -24 c11 -13 20 -18 20 -11 0 6 -21 33
-47 59 -27 26 -34 31 -18 12 18 -22 3 -11 -41 27 -39 34 -77 70 -85 79 -7 10
9 -2 37 -27 l49 -45 -54 57 c-30 31 -58 55 -62 53 -4 -3 -13 3 -20 12 -12 14
-12 16 0 8 11 -6 13 -4 7 11 -23 56 -25 54 75 56 l94 2 -95 6 -95 6 75 2 c87
2 211 -8 206 -17 -2 -3 42 -6 99 -6 57 0 101 4 98 9 -3 4 13 7 35 4 23 -2 38
1 35 6 -3 5 6 7 20 4 17 -3 24 -1 20 5 -4 6 0 8 11 4 9 -4 15 -3 12 2 -3 5 1
12 10 15 10 4 13 2 8 -6 -4 -7 -3 -8 5 -4 6 4 19 22 28 39 14 28 14 30 0 19
-13 -11 -15 -10 -10 7 3 12 10 18 16 14 6 -3 7 -1 3 5 -4 7 -4 29 0 49 6 31 8
34 15 18 6 -16 8 -16 8 -3 1 9 17 35 36 58 37 44 45 61 20 40 -12 -10 -13 -7
-4 22 6 18 11 38 12 45 0 14 91 -29 103 -49z m1135 -15 c-12 -20 -14 -14 -5
12 4 9 9 14 11 11 3 -2 0 -13 -6 -23z m-1261 -27 c0 -2 -12 -11 -27 -20 l-28
-17 24 20 c23 21 31 25 31 17z m328 -91 c-3 -3 -9 2 -12 12 -6 14 -5 15 5 6 7
-7 10 -15 7 -18z m171 -120 c0 -5 -4 -3 -9 5 -5 8 -9 22 -9 30 0 16 17 -16 18
-35z m511 11 c0 -2 -8 -10 -17 -17 -16 -13 -17 -12 -4 4 13 16 21 21 21 13z
m-819 -227 c-5 -13 -10 -19 -10 -12 -1 15 10 45 15 40 3 -2 0 -15 -5 -28z
m643 -43 c-3 -21 -8 -35 -11 -32 -2 2 -1 20 3 40 3 21 8 35 11 32 2 -2 1 -20
-3 -40z m-661 -6 c-3 -12 -8 -19 -11 -16 -5 6 5 36 12 36 2 0 2 -9 -1 -20z
m682 -70 c3 -6 -1 -7 -9 -4 -18 7 -21 14 -7 14 6 0 13 -4 16 -10z m-314 -87
c-4 -28 -6 -32 -9 -15 -3 22 3 52 11 52 1 0 1 -17 -2 -37z m-381 -20 c-11 -17
-11 -17 -6 0 3 10 6 24 7 30 0 9 2 9 5 0 3 -7 0 -20 -6 -30z m72 -25 c-6 -6
-7 0 -4 19 5 21 7 23 10 9 2 -10 0 -22 -6 -28z m-885 -45 c-3 -10 -5 -2 -5 17
0 19 2 27 5 18 2 -10 2 -26 0 -35z m1798 -83 c27 -27 47 -50 44 -50 -3 0 -27
23 -54 50 -27 28 -47 50 -44 50 3 0 27 -22 54 -50z m62 -112 c-3 -7 -5 -2 -5
12 0 14 2 19 5 13 2 -7 2 -19 0 -25z m-17 -42 c0 -2 -8 -10 -17 -17 -16 -13
-17 -12 -4 4 13 16 21 21 21 13z m-4144 -143 c-8 -15 -15 -25 -16 -21 0 12 23
58 27 54 3 -2 -2 -17 -11 -33z m3983 -172 l-2 -26 -4 25 c-3 14 -17 39 -31 55
l-27 30 33 -29 c21 -20 32 -38 31 -55z m-4038 42 c-12 -20 -14 -14 -5 12 4 9
9 14 11 11 3 -2 0 -13 -6 -23z m-20 -50 c-12 -20 -14 -14 -5 12 4 9 9 14 11
11 3 -2 0 -13 -6 -23z m3930 -616 c-10 -9 -11 -8 -5 6 3 10 9 15 12 12 3 -3 0
-11 -7 -18z m-20 -54 c-12 -20 -14 -14 -5 12 4 9 9 14 11 11 3 -2 0 -13 -6
-23z m-4244 -670 c-3 -10 -5 -2 -5 17 0 19 2 27 5 18 2 -10 2 -26 0 -35z"/>
<path d="M4289 3233 c-13 -16 -12 -17 4 -4 16 13 21 21 13 21 -2 0 -10 -8 -17
-17z"/>
<path d="M4234 3188 l-29 -33 33 29 c17 17 32 31 32 33 0 8 -8 1 -36 -29z"/>
<path d="M3465 1208 l-80 -83 83 80 c76 74 87 85 79 85 -1 0 -38 -37 -82 -82z"/>
</g>
</svg>
